<svg xmlns="http://www.w3.org/2000/svg" enable-background="new 0 0 24 24" viewBox="0 0 24 24"><path fill="#00ADEE" fill-rule="evenodd" d="M8.957,20.464c0.591-3.011-1.067-6.196-3.552-8.646c-1.294-1.277-2.977-2.27-4.844-2.462C0.197,10.191,0,11.079,0,12C0,16.053,3.813,19.478,8.957,20.464L8.957,20.464z M12,3.25c0.383,0,0.761,0.014,1.134,0.04C12.64,9.227,12.24,15.15,12.247,20.748L12,20.75l-0.247-0.002C11.759,15.15,11.36,9.227,10.866,3.29C11.239,3.264,11.617,3.25,12,3.25L12,3.25z M15.91,3.728c0.837,0.212,1.632,0.489,2.373,0.823c-3.928,6.026-4.751,11.058-4.966,16.144c-0.202,0.017-0.406,0.029-0.61,0.038C12.857,15.857,12.982,11.003,15.91,3.728L15.91,3.728z M20.394,5.758c0.657,0.47,1.241,0.994,1.738,1.563c-5.357,2.874-7.913,7.289-7.666,13.243c-0.198,0.03-0.397,0.057-0.599,0.08C13.812,15.831,14.545,10.966,20.394,5.758L20.394,5.758z M23.437,9.356C23.803,10.191,24,11.079,24,12c0,4.053-3.814,7.478-8.957,8.464c-0.591-3.011,1.067-6.196,3.552-8.646C19.889,10.541,21.571,9.548,23.437,9.356L23.437,9.356z M11.293,20.734c-0.204-0.009-0.408-0.022-0.61-0.038C10.468,15.61,9.645,10.578,5.717,4.551C6.458,4.217,7.253,3.94,8.09,3.728C11.018,11.003,11.143,15.857,11.293,20.734L11.293,20.734z M10.133,20.644c-0.201-0.024-0.401-0.05-0.599-0.08c0.247-5.954-2.309-10.368-7.666-13.243c0.496-0.569,1.081-1.093,1.737-1.563C9.455,10.966,10.188,15.831,10.133,20.644L10.133,20.644z" clip-rule="evenodd"/><path fill="#0097CF" d="M7.552,14.464H0.486c1.182,2.925,4.413,5.222,8.471,6C9.352,18.451,8.742,16.361,7.552,14.464L7.552,14.464z M9.446,14.464H8.61c0.71,1.813,1.018,3.846,0.924,6.1c0.198,0.03,0.397,0.057,0.599,0.08C10.156,18.601,10.038,16.548,9.446,14.464L9.446,14.464z M10.912,14.464H9.954c0.454,2.115,0.641,4.169,0.728,6.232c0.202,0.017,0.406,0.029,0.61,0.038C11.23,18.7,11.172,16.668,10.912,14.464L10.912,14.464z M12.389,14.464h-0.777c0.092,2.128,0.144,4.228,0.142,6.284L12,20.75l0.247-0.002C12.245,18.692,12.297,16.592,12.389,14.464L12.389,14.464z M14.046,14.464h-0.958c-0.259,2.204-0.318,4.236-0.38,6.271c0.204-0.009,0.408-0.022,0.61-0.038C13.405,18.633,13.592,16.579,14.046,14.464L14.046,14.464z M15.39,14.464h-0.836c-0.592,2.084-0.71,4.137-0.687,6.18c0.201-0.024,0.4-0.05,0.599-0.08C14.372,18.31,14.68,16.276,15.39,14.464L15.39,14.464z M23.514,14.464h-7.066c-1.19,1.897-1.8,3.987-1.405,6C19.101,19.686,22.332,17.389,23.514,14.464L23.514,14.464z"/></svg>